<svg width="100%" viewbox="0 0 700 500" class="symptoms-svg">
                   <g>
                    <image href="images/corona.png" style="height: 20%; width: 20%;" transform="translate(300px, 100px)"/>
                    <image href="images/Symptoms%20v2-01.png" style="width: 100%; height: 100%;"/>
                    <polyline points="148,67 253,67 320,100" style="fill: none; stroke: rgb(200,50,65); stroke-width: 1.25; stroke-dasharray: 1000; stroke-dashoffset: 1000"/>
                    <polyline points="155,185 230,185 340,110" style="fill: none; stroke: rgb(200,50,65); stroke-width: 1.25; stroke-dasharray: 1000; stroke-dashoffset: 1000"/>
                    <polyline points="500,31 420,31 370,58" style="fill: none; stroke: rgb(200,50,65); stroke-width: 1.25; stroke-dasharray: 1000; stroke-dashoffset: 1000"/>
                    <polyline points="510,110 430,110 345,95" style="fill: none; stroke: rgb(200,50,65); stroke-width: 1.25; stroke-dasharray: 1000; stroke-dashoffset: 1000"/>
                    <polyline points="490,195 450,195 345,145" style="fill: none; stroke: rgb(200,50,65); stroke-width: 1.25; stroke-dasharray: 1000; stroke-dashoffset: 1000"/>
                    <circle cx="143" cy="67" r="5" fill="rgb(200,50,65)"/>
                    <circle cx="150" cy="185" r="5" fill="rgb(200,50,65)"/>
                    <circle cx="505" cy="31" r="5" fill="rgb(200,50,65)"/>
                    <circle cx="515" cy="110" r="5" fill="rgb(200,50,65)"/>
                    <circle cx="495" cy="195" r="5" fill="rgb(200,50,65)"/>
                    <circle cx="88" cy="67" r="30" fill="rgba(232,80,91,.15)"/>
                    <circle cx="106" cy="185" r="30" fill="rgba(232,80,91,.15)"/>
                    <circle cx="558" cy="31" r="30" fill="rgba(232,80,91,.15)"/>
                    <circle cx="576" cy="110" r="30" fill="rgba(232,80,91,.15)"/>
                    <circle cx="595" cy="195" r="30" fill="rgba(232,80,91,.15)"/>
                    <text x="45" y="73" fill="rgb(232,80,91)" style="font-family: 'spacegrotesk-bold'">HIGH FEVER</text>
                    <text x="80" y="192" fill="rgb(232,80,91)" style="font-family: 'spacegrotesk-bold'">COUGH
                    </text>
                    <text x="520" y="36" fill="rgb(232,80,91)" style="font-family: 'spacegrotesk-bold'">HEADACHE
                    </text>
                    <text x="530" y="116" fill="rgb(232,80,91)" style="font-family: 'spacegrotesk-bold'">RUNNY NOSE
                    </text>
                    <text x="515" y="201" fill="rgb(232,80,91)" style="font-family: 'spacegrotesk-bold'">RESPIRATORY DISTRESS
                    </text>
                    </g>
                </svg>